# xmcd CD database file
#
# Track frame offsets:
#	150
#	20171
#	33328
#	48060
#	62883
#	80875
#	92203
#	102281
#	115356
#	130246
#	137686
#	149956
#	162931
#	176114
#	186163
#	204616
#
# Disc length: 2890 seconds
#
# Revision: 0
# Processed by: cddbd v1.4PL0 Copyright (c) Steve Scherf et al.
# Submitted via: CDex 1.40Release
#
DISCID=f50b4810
DTITLE=John, "The Reverend" Richard - Love In The Blues
DYEAR=2000
DGENRE=Blues
TTITLE0=Black Cherry Pie
TTITLE1=Bookie Man's Blues
TTITLE2=Snake Town
TTITLE3=I'm Comin' Home
TTITLE4=Goin' Down With Fever
TTITLE5=Cat's Up On The Table
TTITLE6=Made For Style
TTITLE7=Mirror Man
TTITLE8=Just One Woman
TTITLE9=Sorry I Done You Wrong
TTITLE10=Below These Shallow Waters
TTITLE11=Slack Cat
TTITLE12=Bought Myself A Fender
TTITLE13=Be My Woman
TTITLE14=Red Hot Woman
TTITLE15=Just seen The Blues Man
EXTD=YEAR: 2000 ID3G: 0
EXTT0=
EXTT1=
EXTT2=
EXTT3=
EXTT4=
EXTT5=
EXTT6=
EXTT7=
EXTT8=
EXTT9=
EXTT10=
EXTT11=
EXTT12=
EXTT13=
EXTT14=
EXTT15=
PLAYORDER=
